{
  "accessors": [
    {
      "bufferView": 2,
      "componentType": 5126,
      "count": 2708,
      "max": [
        0.9475442171096802,
        0.6538340449333191,
        2.0552494525909424
      ],
      "min": [
        -0.9139761924743652,
        -1.0807161331176758,
        -0.0006821155548095703
      ],
      "type": "VEC3"
    },
    {
      "bufferView": 2,
      "byteOffset": 32496,
      "componentType": 5126,
      "count": 2708,
      "max": [
        0.9998803734779358,
        0.9995487928390503,
        0.999998927116394
      ],
      "min": [
        -0.9990218281745911,
        -0.9998570084571838,
        -1.0
      ],
      "type": "VEC3"
    },
    {
      "bufferView": 3,
      "componentType": 5126,
      "count": 2708,
      "max": [
        0.9999423027038574,
        0.9999649524688721,
        0.9991013407707214,
        1.0
      ],
      "min": [
        -0.9998713731765747,
        -0.999954879283905,
        -0.8579635620117188,
        -1.0
      ],
      "type": "VEC4"
    },
    {
      "bufferView": 1,
      "componentType": 5126,
      "count": 2708,
      "max": [
        0.9916300177574158,
        0.9486883282661438
      ],
      "min": [
        0.0019175426568835974,
        0.003519153455272317
      ],
      "type": "VEC2"
    },
    {
      "bufferView": 0,
      "componentType": 5125,
      "count": 9756,
      "type": "SCALAR"
    }
  ],
  "asset": {
    "extras": {
      "author": "SusanKing (https://sketchfab.com/krolzuzannapl)",
      "license": "CC-BY-4.0 (http://creativecommons.org/licenses/by/4.0/)",
      "source": "https://sketchfab.com/3d-models/cheese-low-poly-dcfbc752c09a4aea81348f1d053afc5e",
      "title": "Cheese low poly"
    },
    "generator": "Sketchfab-12.66.0",
    "version": "2.0"
  },
  "bufferViews": [
    {
      "buffer": 0,
      "byteLength": 39024,
      "name": "floatBufferViews",
      "target": 34963
    },
    {
      "buffer": 0,
      "byteLength": 21664,
      "byteOffset": 39024,
      "byteStride": 8,
      "name": "floatBufferViews",
      "target": 34962
    },
    {
      "buffer": 0,
      "byteLength": 64992,
      "byteOffset": 60688,
      "byteStride": 12,
      "name": "floatBufferViews",
      "target": 34962
    },
    {
      "buffer": 0,
      "byteLength": 43328,
      "byteOffset": 125680,
      "byteStride": 16,
      "name": "floatBufferViews",
      "target": 34962
    }
  ],
  "buffers": [
    {
      "byteLength": 169008,
      "uri": "scene.bin"
    }
  ],
  "images": [
    {
      "uri": "textures/cheese_baseColor.jpeg"
    },
    {
      "uri": "textures/cheese_metallicRoughness.png"
    },
    {
      "uri": "textures/cheese_normal.png"
    }
  ],
  "materials": [
    {
      "doubleSided": true,
      "name": "cheese",
      "normalTexture": {
        "index": 2
      },
      "pbrMetallicRoughness": {
        "baseColorTexture": {
          "index": 0
        },
        "metallicRoughnessTexture": {
          "index": 1
        }
      }
    }
  ],
  "meshes": [
    {
      "name": "cheese_cheese_0",
      "primitives": [
        {
          "attributes": {
            "NORMAL": 1,
            "POSITION": 0,
            "TANGENT": 2,
            "TEXCOORD_0": 3
          },
          "indices": 4,
          "material": 0,
          "mode": 4
        }
      ]
    }
  ],
  "nodes": [
    {
      "children": [
        1
      ],
      "matrix": [
        1.0,
        0.0,
        0.0,
        0.0,
        0.0,
        2.220446049250313e-16,
        -1.0,
        0.0,
        0.0,
        1.0,
        2.220446049250313e-16,
        0.0,
        0.0,
        0.0,
        0.0,
        1.0
      ],
      "name": "Sketchfab_model"
    },
    {
      "children": [
        2
      ],
      "matrix": [
        1.0,
        0.0,
        0.0,
        0.0,
        0.0,
        0.0,
        1.0,
        0.0,
        0.0,
        -1.0,
        0.0,
        0.0,
        0.0,
        0.0,
        0.0,
        1.0
      ],
      "name": "f32fe64715c84672b12a4a3387983035.fbx"
    },
    {
      "children": [
        3
      ],
      "name": "RootNode"
    },
    {
      "children": [
        4
      ],
      "matrix": [
        84.146240234375,
        0.0,
        0.0,
        0.0,
        0.0,
        -1.8635116701576883e-05,
        -114.38153076171724,
        0.0,
        0.0,
        46.6445960998529,
        -7.599369286545705e-06,
        0.0,
        0.0,
        0.0,
        -5.9604644775390625e-06,
        1.0
      ],
      "name": "cheese"
    },
    {
      "mesh": 0,
      "name": "cheese_cheese_0"
    }
  ],
  "samplers": [
    {
      "magFilter": 9729,
      "minFilter": 9987,
      "wrapS": 10497,
      "wrapT": 10497
    }
  ],
  "scene": 0,
  "scenes": [
    {
      "name": "Sketchfab_Scene",
      "nodes": [
        0
      ]
    }
  ],
  "textures": [
    {
      "sampler": 0,
      "source": 0
    },
    {
      "sampler": 0,
      "source": 1
    },
    {
      "sampler": 0,
      "source": 2
    }
  ]
}
